<mxfile host="app.diagrams.net" agent="Mozilla/5.0 (Windows NT 10.0; Win64; x64) AppleWebKit/537.36 (KHTML, like Gecko) Chrome/137.0.0.0 Safari/537.36" version="27.1.1">
  <diagram name="Trang-1" id="gt23MECRmC9eGhrMP80W">
    <mxGraphModel dx="4552" dy="1195" grid="0" gridSize="10" guides="1" tooltips="1" connect="1" arrows="1" fold="1" page="1" pageScale="1" pageWidth="827" pageHeight="1169" math="0" shadow="0">
      <root>
        <mxCell id="0" />
        <mxCell id="1" parent="0" />
        <mxCell id="2EM5L-1oZQc2lYcwiExf-1" value="" style="ellipse;html=1;shape=startState;fillColor=#000000;strokeColor=#ff0000;" parent="1" vertex="1">
          <mxGeometry x="-738" y="393" width="30" height="30" as="geometry" />
        </mxCell>
        <mxCell id="2EM5L-1oZQc2lYcwiExf-2" value="&lt;font style=&quot;font-size: 14px;&quot;&gt;System Initialized&lt;/font&gt;" style="edgeStyle=orthogonalEdgeStyle;html=1;verticalAlign=bottom;endArrow=open;endSize=8;strokeColor=#ff0000;rounded=0;entryX=0.5;entryY=1;entryDx=0;entryDy=0;exitX=0.5;exitY=0;exitDx=0;exitDy=0;" parent="1" source="2EM5L-1oZQc2lYcwiExf-1" target="2EM5L-1oZQc2lYcwiExf-7" edge="1">
          <mxGeometry x="-0.0152" relative="1" as="geometry">
            <mxPoint x="-15" y="190" as="targetPoint" />
            <mxPoint x="-723" y="482" as="sourcePoint" />
            <mxPoint as="offset" />
          </mxGeometry>
        </mxCell>
        <mxCell id="2EM5L-1oZQc2lYcwiExf-7" value="&lt;p style=&quot;margin:0px;margin-top:4px;text-align:center;&quot;&gt;&lt;b&gt;Viewing Payment Info&lt;/b&gt;&lt;/p&gt;&lt;hr size=&quot;1&quot; style=&quot;border-style:solid;&quot;&gt;&lt;div style=&quot;height:2px;&quot;&gt;&lt;/div&gt;" style="verticalAlign=top;align=left;overflow=fill;html=1;whiteSpace=wrap;rounded=1;fillColor=#fff2cc;strokeColor=light-dark(#000000, #6d5100);" parent="1" vertex="1">
          <mxGeometry x="-797" y="202.5" width="140" height="40" as="geometry" />
        </mxCell>
        <mxCell id="2EM5L-1oZQc2lYcwiExf-34" value="" style="endArrow=open;endFill=1;endSize=12;html=1;rounded=0;entryX=0.008;entryY=0.63;entryDx=0;entryDy=0;entryPerimeter=0;" parent="1" source="2EM5L-1oZQc2lYcwiExf-7" target="2EM5L-1oZQc2lYcwiExf-36" edge="1">
          <mxGeometry width="160" relative="1" as="geometry">
            <mxPoint x="-20" y="280" as="sourcePoint" />
            <mxPoint x="-15" y="300" as="targetPoint" />
            <Array as="points" />
          </mxGeometry>
        </mxCell>
        <mxCell id="2EM5L-1oZQc2lYcwiExf-35" value="&lt;span style=&quot;font-size: 15px;&quot;&gt;Customer Selects &quot;Pay Now&quot;&amp;nbsp;&lt;/span&gt;" style="edgeLabel;html=1;align=center;verticalAlign=middle;resizable=0;points=[];" parent="2EM5L-1oZQc2lYcwiExf-34" vertex="1" connectable="0">
          <mxGeometry x="-0.135" y="-1" relative="1" as="geometry">
            <mxPoint x="1" y="2" as="offset" />
          </mxGeometry>
        </mxCell>
        <mxCell id="vbNJFK19UPRv6BLIqkNv-2" value="" style="edgeStyle=orthogonalEdgeStyle;rounded=0;orthogonalLoop=1;jettySize=auto;html=1;" edge="1" parent="1" source="2EM5L-1oZQc2lYcwiExf-36" target="vbNJFK19UPRv6BLIqkNv-1">
          <mxGeometry relative="1" as="geometry" />
        </mxCell>
        <mxCell id="vbNJFK19UPRv6BLIqkNv-23" value="&lt;font style=&quot;font-size: 14px;&quot;&gt;Method Selected&lt;/font&gt;" style="edgeLabel;html=1;align=center;verticalAlign=middle;resizable=0;points=[];" vertex="1" connectable="0" parent="vbNJFK19UPRv6BLIqkNv-2">
          <mxGeometry x="-0.1938" y="5" relative="1" as="geometry">
            <mxPoint as="offset" />
          </mxGeometry>
        </mxCell>
        <mxCell id="2EM5L-1oZQc2lYcwiExf-36" value="&lt;p style=&quot;margin:0px;margin-top:4px;text-align:center;&quot;&gt;&lt;b&gt;Selecting Payment Method&lt;/b&gt;&lt;/p&gt;&lt;hr size=&quot;1&quot; style=&quot;border-style:solid;&quot;&gt;&lt;div style=&quot;height:2px;&quot;&gt;&lt;/div&gt;" style="verticalAlign=top;align=left;overflow=fill;html=1;whiteSpace=wrap;rounded=1;fillColor=#fff2cc;strokeColor=light-dark(#000000, #6d5100);" parent="1" vertex="1">
          <mxGeometry x="-357.5" y="197" width="179" height="51" as="geometry" />
        </mxCell>
        <mxCell id="2EM5L-1oZQc2lYcwiExf-93" value="" style="ellipse;html=1;shape=endState;fillColor=#000000;strokeColor=#ff0000;" parent="1" vertex="1">
          <mxGeometry x="-253" y="1250" width="30" height="30" as="geometry" />
        </mxCell>
        <mxCell id="vbNJFK19UPRv6BLIqkNv-4" value="" style="edgeStyle=orthogonalEdgeStyle;rounded=0;orthogonalLoop=1;jettySize=auto;html=1;" edge="1" parent="1" source="vbNJFK19UPRv6BLIqkNv-1" target="vbNJFK19UPRv6BLIqkNv-3">
          <mxGeometry relative="1" as="geometry" />
        </mxCell>
        <mxCell id="vbNJFK19UPRv6BLIqkNv-1" value="&lt;p style=&quot;margin:0px;margin-top:4px;text-align:center;&quot;&gt;&lt;b&gt;Pending Approval&lt;/b&gt;&lt;/p&gt;&lt;hr size=&quot;1&quot; style=&quot;border-style:solid;&quot;&gt;&lt;div style=&quot;height:2px;&quot;&gt;&lt;/div&gt;" style="verticalAlign=top;align=left;overflow=fill;html=1;whiteSpace=wrap;rounded=1;fillColor=#fff2cc;strokeColor=light-dark(#000000, #6d5100);" vertex="1" parent="1">
          <mxGeometry x="-338" y="313" width="140" height="40" as="geometry" />
        </mxCell>
        <mxCell id="vbNJFK19UPRv6BLIqkNv-8" value="" style="edgeStyle=orthogonalEdgeStyle;rounded=0;orthogonalLoop=1;jettySize=auto;html=1;" edge="1" parent="1" source="vbNJFK19UPRv6BLIqkNv-3" target="vbNJFK19UPRv6BLIqkNv-7">
          <mxGeometry relative="1" as="geometry" />
        </mxCell>
        <mxCell id="vbNJFK19UPRv6BLIqkNv-28" value="&lt;font style=&quot;font-size: 15px;&quot;&gt;Data Validated&lt;/font&gt;" style="edgeLabel;html=1;align=center;verticalAlign=middle;resizable=0;points=[];" vertex="1" connectable="0" parent="vbNJFK19UPRv6BLIqkNv-8">
          <mxGeometry x="-0.0688" y="3" relative="1" as="geometry">
            <mxPoint as="offset" />
          </mxGeometry>
        </mxCell>
        <mxCell id="vbNJFK19UPRv6BLIqkNv-40" style="edgeStyle=orthogonalEdgeStyle;rounded=0;orthogonalLoop=1;jettySize=auto;html=1;exitX=1;exitY=0.5;exitDx=0;exitDy=0;entryX=0.5;entryY=0;entryDx=0;entryDy=0;" edge="1" parent="1" source="vbNJFK19UPRv6BLIqkNv-3" target="vbNJFK19UPRv6BLIqkNv-42">
          <mxGeometry relative="1" as="geometry">
            <mxPoint x="-153.00000000000045" y="585" as="targetPoint" />
          </mxGeometry>
        </mxCell>
        <mxCell id="vbNJFK19UPRv6BLIqkNv-3" value="&lt;p style=&quot;margin:0px;margin-top:4px;text-align:center;&quot;&gt;&lt;b&gt;Verifying Payment Info&lt;/b&gt;&lt;/p&gt;&lt;hr size=&quot;1&quot; style=&quot;border-style:solid;&quot;&gt;&lt;div style=&quot;height:2px;&quot;&gt;&lt;/div&gt;" style="verticalAlign=top;align=left;overflow=fill;html=1;whiteSpace=wrap;rounded=1;fillColor=#fff2cc;strokeColor=light-dark(#000000, #6d5100);" vertex="1" parent="1">
          <mxGeometry x="-370" y="461" width="206" height="75" as="geometry" />
        </mxCell>
        <mxCell id="vbNJFK19UPRv6BLIqkNv-10" value="" style="edgeStyle=orthogonalEdgeStyle;rounded=0;orthogonalLoop=1;jettySize=auto;html=1;" edge="1" parent="1" source="vbNJFK19UPRv6BLIqkNv-7" target="vbNJFK19UPRv6BLIqkNv-9">
          <mxGeometry relative="1" as="geometry" />
        </mxCell>
        <mxCell id="vbNJFK19UPRv6BLIqkNv-29" value="&lt;font style=&quot;font-size: 15px;&quot;&gt;Awaiting Final Payment Window Opens&lt;/font&gt;" style="edgeLabel;html=1;align=center;verticalAlign=middle;resizable=0;points=[];" vertex="1" connectable="0" parent="vbNJFK19UPRv6BLIqkNv-10">
          <mxGeometry x="0.0875" y="-2" relative="1" as="geometry">
            <mxPoint as="offset" />
          </mxGeometry>
        </mxCell>
        <mxCell id="vbNJFK19UPRv6BLIqkNv-7" value="&lt;p style=&quot;margin:0px;margin-top:4px;text-align:center;&quot;&gt;&lt;b&gt;Deposit Paid&lt;/b&gt;&lt;/p&gt;&lt;hr size=&quot;1&quot; style=&quot;border-style:solid;&quot;&gt;&lt;div style=&quot;height:2px;&quot;&gt;&lt;/div&gt;" style="verticalAlign=top;align=left;overflow=fill;html=1;whiteSpace=wrap;rounded=1;fillColor=#fff2cc;strokeColor=light-dark(#000000, #6d5100);" vertex="1" parent="1">
          <mxGeometry x="-577" y="574" width="140" height="40" as="geometry" />
        </mxCell>
        <mxCell id="vbNJFK19UPRv6BLIqkNv-15" value="" style="edgeStyle=orthogonalEdgeStyle;rounded=0;orthogonalLoop=1;jettySize=auto;html=1;" edge="1" parent="1" source="vbNJFK19UPRv6BLIqkNv-9" target="vbNJFK19UPRv6BLIqkNv-14">
          <mxGeometry relative="1" as="geometry" />
        </mxCell>
        <mxCell id="vbNJFK19UPRv6BLIqkNv-30" value="&lt;font style=&quot;font-size: 15px;&quot;&gt;Request Sent to Service Provider&lt;/font&gt;" style="edgeLabel;html=1;align=center;verticalAlign=middle;resizable=0;points=[];" vertex="1" connectable="0" parent="vbNJFK19UPRv6BLIqkNv-15">
          <mxGeometry x="-0.1" y="3" relative="1" as="geometry">
            <mxPoint as="offset" />
          </mxGeometry>
        </mxCell>
        <mxCell id="vbNJFK19UPRv6BLIqkNv-9" value="&lt;p style=&quot;text-align: center; margin: 4px 0px 0px;&quot;&gt;&lt;span style=&quot;background-color: transparent; text-align: left; font-size: 14px;&quot;&gt;&lt;b&gt;Sending Payment Request&lt;/b&gt;&lt;/span&gt;&lt;b&gt;&lt;font style=&quot;font-size: 14px;&quot;&gt;&amp;nbsp;&lt;/font&gt;&lt;/b&gt;&lt;/p&gt;&lt;hr size=&quot;1&quot; style=&quot;border-style:solid;&quot;&gt;&lt;div style=&quot;height:2px;&quot;&gt;&lt;/div&gt;" style="verticalAlign=top;align=left;overflow=fill;html=1;whiteSpace=wrap;rounded=1;fillColor=#fff2cc;strokeColor=light-dark(#000000, #6d5100);" vertex="1" parent="1">
          <mxGeometry x="-799" y="712" width="193" height="64" as="geometry" />
        </mxCell>
        <mxCell id="vbNJFK19UPRv6BLIqkNv-17" value="" style="edgeStyle=orthogonalEdgeStyle;rounded=0;orthogonalLoop=1;jettySize=auto;html=1;" edge="1" parent="1" source="vbNJFK19UPRv6BLIqkNv-14" target="vbNJFK19UPRv6BLIqkNv-16">
          <mxGeometry relative="1" as="geometry" />
        </mxCell>
        <mxCell id="vbNJFK19UPRv6BLIqkNv-31" value="&lt;font style=&quot;font-size: 15px;&quot;&gt;Provider Confirms Success&lt;/font&gt;" style="edgeLabel;html=1;align=center;verticalAlign=middle;resizable=0;points=[];" vertex="1" connectable="0" parent="vbNJFK19UPRv6BLIqkNv-17">
          <mxGeometry x="-0.225" y="5" relative="1" as="geometry">
            <mxPoint as="offset" />
          </mxGeometry>
        </mxCell>
        <mxCell id="vbNJFK19UPRv6BLIqkNv-50" value="" style="edgeStyle=orthogonalEdgeStyle;rounded=0;orthogonalLoop=1;jettySize=auto;html=1;" edge="1" parent="1" source="vbNJFK19UPRv6BLIqkNv-14" target="vbNJFK19UPRv6BLIqkNv-49">
          <mxGeometry relative="1" as="geometry" />
        </mxCell>
        <mxCell id="vbNJFK19UPRv6BLIqkNv-51" value="&lt;font style=&quot;font-size: 15px;&quot;&gt;Provider Returns Failure&amp;nbsp;&amp;nbsp;&lt;/font&gt;" style="edgeLabel;html=1;align=center;verticalAlign=middle;resizable=0;points=[];" vertex="1" connectable="0" parent="vbNJFK19UPRv6BLIqkNv-50">
          <mxGeometry x="-0.1693" y="-5" relative="1" as="geometry">
            <mxPoint x="8" y="-5" as="offset" />
          </mxGeometry>
        </mxCell>
        <mxCell id="vbNJFK19UPRv6BLIqkNv-14" value="&lt;p style=&quot;margin:0px;margin-top:4px;text-align:center;&quot;&gt;&lt;b&gt;Awaiting Payment Result&lt;/b&gt;&lt;/p&gt;&lt;hr size=&quot;1&quot; style=&quot;border-style:solid;&quot;&gt;&lt;div style=&quot;height:2px;&quot;&gt;&lt;/div&gt;" style="verticalAlign=top;align=left;overflow=fill;html=1;whiteSpace=wrap;rounded=1;fillColor=#fff2cc;strokeColor=light-dark(#000000, #6d5100);" vertex="1" parent="1">
          <mxGeometry x="-338" y="716" width="194" height="60" as="geometry" />
        </mxCell>
        <mxCell id="vbNJFK19UPRv6BLIqkNv-54" value="" style="edgeStyle=orthogonalEdgeStyle;rounded=0;orthogonalLoop=1;jettySize=auto;html=1;" edge="1" parent="1" source="vbNJFK19UPRv6BLIqkNv-16" target="vbNJFK19UPRv6BLIqkNv-53">
          <mxGeometry relative="1" as="geometry" />
        </mxCell>
        <mxCell id="vbNJFK19UPRv6BLIqkNv-60" value="&lt;font style=&quot;font-size: 15px;&quot;&gt;System Generates Invoice&lt;/font&gt;" style="edgeLabel;html=1;align=center;verticalAlign=middle;resizable=0;points=[];" vertex="1" connectable="0" parent="vbNJFK19UPRv6BLIqkNv-54">
          <mxGeometry x="0.0313" y="4" relative="1" as="geometry">
            <mxPoint as="offset" />
          </mxGeometry>
        </mxCell>
        <mxCell id="vbNJFK19UPRv6BLIqkNv-16" value="&lt;p style=&quot;margin:0px;margin-top:4px;text-align:center;&quot;&gt;&lt;b&gt;Payment Successful&lt;/b&gt;&lt;/p&gt;&lt;hr size=&quot;1&quot; style=&quot;border-style:solid;&quot;&gt;&lt;div style=&quot;height:2px;&quot;&gt;&lt;/div&gt;" style="verticalAlign=top;align=left;overflow=fill;html=1;whiteSpace=wrap;rounded=1;fillColor=#fff2cc;strokeColor=light-dark(#000000, #6d5100);" vertex="1" parent="1">
          <mxGeometry x="-325" y="954" width="168" height="61" as="geometry" />
        </mxCell>
        <mxCell id="vbNJFK19UPRv6BLIqkNv-24" value="&lt;font style=&quot;font-size: 15px;&quot;&gt;Manager Approves Request&lt;/font&gt;" style="text;html=1;align=center;verticalAlign=middle;resizable=0;points=[];autosize=1;strokeColor=none;fillColor=none;" vertex="1" parent="1">
          <mxGeometry x="-402" y="380" width="204" height="30" as="geometry" />
        </mxCell>
        <mxCell id="vbNJFK19UPRv6BLIqkNv-41" value="&lt;font style=&quot;font-size: 15px;&quot;&gt;Missing Data Detected&lt;/font&gt;" style="text;html=1;align=center;verticalAlign=middle;resizable=0;points=[];autosize=1;strokeColor=none;fillColor=none;" vertex="1" parent="1">
          <mxGeometry x="-155" y="447" width="169" height="30" as="geometry" />
        </mxCell>
        <mxCell id="vbNJFK19UPRv6BLIqkNv-46" style="edgeStyle=orthogonalEdgeStyle;rounded=0;orthogonalLoop=1;jettySize=auto;html=1;exitX=0;exitY=0.5;exitDx=0;exitDy=0;entryX=1;entryY=0.5;entryDx=0;entryDy=0;" edge="1" parent="1" source="vbNJFK19UPRv6BLIqkNv-42" target="vbNJFK19UPRv6BLIqkNv-7">
          <mxGeometry relative="1" as="geometry" />
        </mxCell>
        <mxCell id="vbNJFK19UPRv6BLIqkNv-47" value="&lt;font style=&quot;font-size: 15px;&quot;&gt;Customer Submits Required Information&lt;/font&gt;" style="edgeLabel;html=1;align=center;verticalAlign=middle;resizable=0;points=[];" vertex="1" connectable="0" parent="vbNJFK19UPRv6BLIqkNv-46">
          <mxGeometry x="-0.1571" y="-4" relative="1" as="geometry">
            <mxPoint x="-1" as="offset" />
          </mxGeometry>
        </mxCell>
        <mxCell id="vbNJFK19UPRv6BLIqkNv-42" value="&lt;p style=&quot;margin:0px;margin-top:4px;text-align:center;&quot;&gt;&lt;b&gt;Waiting for Additional Info&lt;/b&gt;&lt;/p&gt;&lt;hr size=&quot;1&quot; style=&quot;border-style:solid;&quot;&gt;&lt;div style=&quot;height:2px;&quot;&gt;&lt;/div&gt;" style="verticalAlign=top;align=left;overflow=fill;html=1;whiteSpace=wrap;rounded=1;fillColor=#fff2cc;strokeColor=light-dark(#000000, #6d5100);" vertex="1" parent="1">
          <mxGeometry x="93" y="566" width="168" height="56" as="geometry" />
        </mxCell>
        <mxCell id="vbNJFK19UPRv6BLIqkNv-66" style="edgeStyle=orthogonalEdgeStyle;rounded=0;orthogonalLoop=1;jettySize=auto;html=1;exitX=0.5;exitY=1;exitDx=0;exitDy=0;entryX=1;entryY=0.5;entryDx=0;entryDy=0;" edge="1" parent="1" source="vbNJFK19UPRv6BLIqkNv-49" target="2EM5L-1oZQc2lYcwiExf-93">
          <mxGeometry relative="1" as="geometry" />
        </mxCell>
        <mxCell id="vbNJFK19UPRv6BLIqkNv-69" value="&lt;font style=&quot;font-size: 15px;&quot;&gt;Timeout or Customer Retry&amp;nbsp;&lt;/font&gt;" style="edgeLabel;html=1;align=center;verticalAlign=middle;resizable=0;points=[];" vertex="1" connectable="0" parent="vbNJFK19UPRv6BLIqkNv-66">
          <mxGeometry x="-0.4356" y="1" relative="1" as="geometry">
            <mxPoint as="offset" />
          </mxGeometry>
        </mxCell>
        <mxCell id="vbNJFK19UPRv6BLIqkNv-49" value="&lt;p style=&quot;margin:0px;margin-top:4px;text-align:center;&quot;&gt;&lt;b&gt;Payment Failed&lt;/b&gt;&lt;/p&gt;&lt;hr size=&quot;1&quot; style=&quot;border-style:solid;&quot;&gt;&lt;div style=&quot;height:2px;&quot;&gt;&lt;/div&gt;" style="verticalAlign=top;align=left;overflow=fill;html=1;whiteSpace=wrap;rounded=1;fillColor=#fff2cc;strokeColor=light-dark(#000000, #6d5100);" vertex="1" parent="1">
          <mxGeometry x="43" y="814" width="194" height="60" as="geometry" />
        </mxCell>
        <mxCell id="vbNJFK19UPRv6BLIqkNv-58" value="" style="edgeStyle=orthogonalEdgeStyle;rounded=0;orthogonalLoop=1;jettySize=auto;html=1;" edge="1" parent="1" source="vbNJFK19UPRv6BLIqkNv-53" target="vbNJFK19UPRv6BLIqkNv-57">
          <mxGeometry relative="1" as="geometry" />
        </mxCell>
        <mxCell id="vbNJFK19UPRv6BLIqkNv-61" value="&lt;font style=&quot;font-size: 15px;&quot;&gt;System Updates Status&lt;/font&gt;" style="edgeLabel;html=1;align=center;verticalAlign=middle;resizable=0;points=[];" vertex="1" connectable="0" parent="vbNJFK19UPRv6BLIqkNv-58">
          <mxGeometry x="-0.0875" y="-3" relative="1" as="geometry">
            <mxPoint as="offset" />
          </mxGeometry>
        </mxCell>
        <mxCell id="vbNJFK19UPRv6BLIqkNv-53" value="&lt;p style=&quot;margin:0px;margin-top:4px;text-align:center;&quot;&gt;&lt;b&gt;Invoice Generated&lt;/b&gt;&lt;/p&gt;&lt;hr size=&quot;1&quot; style=&quot;border-style:solid;&quot;&gt;&lt;div style=&quot;height:2px;&quot;&gt;&lt;/div&gt;" style="verticalAlign=top;align=left;overflow=fill;html=1;whiteSpace=wrap;rounded=1;fillColor=#fff2cc;strokeColor=light-dark(#000000, #6d5100);" vertex="1" parent="1">
          <mxGeometry x="-797" y="946" width="168" height="61" as="geometry" />
        </mxCell>
        <mxCell id="vbNJFK19UPRv6BLIqkNv-67" style="edgeStyle=orthogonalEdgeStyle;rounded=0;orthogonalLoop=1;jettySize=auto;html=1;exitX=0.5;exitY=1;exitDx=0;exitDy=0;entryX=0;entryY=0.5;entryDx=0;entryDy=0;" edge="1" parent="1" source="vbNJFK19UPRv6BLIqkNv-57" target="2EM5L-1oZQc2lYcwiExf-93">
          <mxGeometry relative="1" as="geometry" />
        </mxCell>
        <mxCell id="vbNJFK19UPRv6BLIqkNv-57" value="&lt;p style=&quot;margin:0px;margin-top:4px;text-align:center;&quot;&gt;&lt;b&gt;Payment Completed&lt;/b&gt;&lt;/p&gt;&lt;hr size=&quot;1&quot; style=&quot;border-style:solid;&quot;&gt;&lt;div style=&quot;height:2px;&quot;&gt;&lt;/div&gt;" style="verticalAlign=top;align=left;overflow=fill;html=1;whiteSpace=wrap;rounded=1;fillColor=#fff2cc;strokeColor=light-dark(#000000, #6d5100);" vertex="1" parent="1">
          <mxGeometry x="-799" y="1116" width="168" height="61" as="geometry" />
        </mxCell>
        <mxCell id="vbNJFK19UPRv6BLIqkNv-68" value="&lt;font style=&quot;font-size: 15px;&quot;&gt;System Logs Transaction&lt;/font&gt;" style="text;html=1;align=center;verticalAlign=middle;resizable=0;points=[];autosize=1;strokeColor=none;fillColor=none;" vertex="1" parent="1">
          <mxGeometry x="-594" y="1231" width="186" height="30" as="geometry" />
        </mxCell>
      </root>
    </mxGraphModel>
  </diagram>
</mxfile>
